<svg width="580" height="104" viewBox="0 0 580 104" fill="none" xmlns="http://www.w3.org/2000/svg">
<path d="M48.8973 41.8983C53.4884 41.2788 62.341 41.5318 67.2107 41.6707C67.3 41.673 67.3893 41.6753 67.4786 41.6775C68.6344 41.7105 69.7276 41.719 71.0084 41.7283C74.0627 41.7506 78.1892 41.7807 86.8018 42.1756C89.3076 42.1611 91.8139 42.1531 94.3198 42.1531C121.382 42.1531 148.443 42.6682 175.505 43.285C175.847 43.2818 176.195 43.2785 176.546 43.2752C183.334 43.2113 191.75 43.1322 197.038 43.3582C203.762 43.6456 208.328 43.9123 212.079 44.1424C233.573 44.6387 255.068 45.0822 276.563 45.2655C283.3 45.3229 290.037 45.3544 296.774 45.3544C302.978 45.3544 309.183 45.3347 315.386 45.2977C318.999 45.1629 322.434 45.0027 325.619 44.8544C330.095 44.6459 334.08 44.4607 337.371 44.4003C345.301 44.2547 354.297 44.4844 360.977 44.6551C362.069 44.683 363.1 44.7095 364.053 44.7323C369.358 44.6477 374.665 44.5572 379.97 44.4647C380.325 44.5162 380.682 44.5699 381.044 44.6249C385.572 45.3115 391.139 45.3027 399.9 45.2899C403.716 45.2844 408.138 45.2783 413.344 45.328C416.699 45.36 418.422 45.6322 419.83 45.8544C420.244 45.9197 420.633 45.9808 421.026 46.0302C422.374 46.1993 423.794 46.0165 425.473 45.8007C427.65 45.5207 430.262 45.1843 433.712 45.4882C444.707 46.4563 449.552 45.7995 453.217 45.3026C454.292 45.1569 455.267 45.0252 456.264 44.952C459.499 44.7149 464.108 44.9498 467.591 45.2723C470.353 45.5281 475.879 45.2745 480.069 44.952C481.654 44.8301 483.797 44.827 486.321 44.8241C488.932 44.8211 491.954 44.8183 495.187 44.6815C503.357 44.3357 507.698 44.1682 511.189 44.034C512.184 43.9958 513.111 43.961 514.037 43.9247C516.962 43.8099 520.593 43.7154 524.269 43.62C528.669 43.5058 533.133 43.3899 536.531 43.2352C545.336 43.3989 554.142 43.6015 562.947 43.8036C567.469 43.9085 571.809 44.4994 575.006 45.4735C578.204 46.4484 580 47.7196 580 49.0371C580 50.3545 578.204 51.6256 575.006 52.6006C571.809 53.5747 567.469 54.1666 562.947 54.2715C553.836 54.4807 544.723 54.6899 535.612 54.8565C524.513 55.0595 513.413 55.1993 502.313 55.1993C494.549 55.1993 486.784 55.1679 479.02 55.1114C478.22 55.1056 477.421 55.0992 476.621 55.0928C470.099 55.4172 463.588 55.7123 459.001 55.8175C455.214 55.9043 452.453 55.7312 450.088 55.5831C448.461 55.4812 447.021 55.391 445.564 55.4053C444.782 55.413 443.713 55.4331 442.424 55.4571C437.161 55.5553 428.223 55.7219 420.069 55.4053C416.451 55.2649 412.248 54.988 408.235 54.7237C402.498 54.3457 397.147 53.9934 394.446 54.1016C389.703 54.2918 384.263 54.1308 379.457 53.9883C374.872 53.8524 370.862 53.7337 368.582 53.9532C365.857 54.2155 363.533 54.1086 360.078 53.9502C357.682 53.8404 354.741 53.7064 350.744 53.6524C346.13 53.5901 342.866 53.4063 340.091 53.25C336.185 53.0301 333.247 52.8648 328.868 53.169C324.003 53.507 318.919 53.722 314.915 53.6153C313.091 53.5666 311.005 53.5785 308.834 53.5909C305.96 53.6073 302.937 53.6243 300.178 53.503C297.903 53.403 296.024 53.1473 294.36 52.9209C293.842 52.8503 293.343 52.7829 292.861 52.7237C291.05 52.7269 289.238 52.7317 287.427 52.7393C287.134 52.7804 286.826 52.826 286.504 52.8731C284.889 53.1091 282.903 53.3987 280.445 53.543C276.554 53.7713 273.14 53.6284 269.539 53.4766C266.735 53.3584 263.818 53.2351 260.473 53.2793C258.192 53.3095 255.596 53.414 253.021 53.5176C249.198 53.6714 245.423 53.8228 242.8 53.7266C241.817 53.6905 240.972 53.5299 240.136 53.3701C240.132 53.3692 240.128 53.3682 240.125 53.3672C240.068 53.3564 240.011 53.3458 239.954 53.335C233.566 53.4574 227.177 53.5923 220.788 53.7344C220.235 53.7757 219.675 53.8164 219.121 53.8565C216.412 54.0523 213.78 54.2426 212.063 54.5127C210.203 54.8056 205.527 54.9758 200.599 55.1553C197.372 55.2729 194.036 55.3943 191.312 55.5567C189.72 55.6516 188.209 55.4861 186.655 55.3155C185.205 55.1563 183.716 54.9929 182.089 55.0333C181.274 55.0535 180.393 55.1221 179.454 55.1954C178.626 55.2599 177.752 55.3283 176.836 55.3702C175.985 55.409 174.091 55.3188 171.661 55.2042C170.16 55.1333 168.454 55.0532 166.663 54.9874C161.93 55.0905 157.197 55.1894 152.464 55.2813C151.477 55.4264 150.62 55.6147 149.942 55.8565C149.455 56.03 149.041 56.2373 148.615 56.4493C148.036 56.7378 147.437 57.0359 146.611 57.2735C145.966 57.4593 145.205 57.5333 144.694 57.4562C144.456 57.4202 144.273 57.3524 144.107 57.2911C143.917 57.2209 143.747 57.1585 143.54 57.1603C143.391 57.1617 143.235 57.2114 143.044 57.2716C142.739 57.3677 142.342 57.4918 141.737 57.4962C139.489 57.5126 136.933 57.4729 134.43 57.4337C131.646 57.3901 128.925 57.3478 126.757 57.3849C124.328 57.4264 120.867 57.2418 117.401 57.0577C114.982 56.9293 112.561 56.8015 110.483 56.7491C108.447 56.6977 106.327 56.7999 104.274 56.8995C101.809 57.0191 99.4388 57.1347 97.4244 56.9728C97.017 56.9399 96.5112 56.7397 95.8765 56.4893C95.4267 56.3119 94.909 56.109 94.3198 55.922C91.7556 55.922 89.191 55.9137 86.6268 55.8985C86.5365 55.9257 86.4434 55.9533 86.35 55.9815C86.3485 55.9822 86.3471 55.9828 86.3456 55.9835C84.2395 56.6203 81.3575 57.4915 77.3085 56.9718C76.2792 56.8397 75.6313 56.5957 75.0476 56.3761C74.4742 56.1604 73.9618 55.9674 73.2118 55.9268C72.3599 55.8809 71.3542 56.0133 70.2577 56.1573C68.7182 56.3595 66.9986 56.5854 65.2731 56.3751C65.1552 56.3607 65.0285 56.345 64.8966 56.3292C63.6459 56.1795 61.7942 55.9582 59.9518 55.5128C54.4853 55.3939 49.0182 55.2546 43.5517 55.1026C34.4396 54.8492 25.3257 54.5603 16.2145 54.2715C11.7818 54.1294 7.53062 53.5228 4.39611 52.5518C1.26141 51.5794 -0.5 50.3297 -0.5 49.0371C-0.499738 47.7446 1.26164 46.4956 4.39611 45.5233C7.53064 44.5522 11.7816 43.9457 16.2145 43.8036C23.4428 43.5745 30.6735 43.3451 37.9027 43.1336C38.2816 43.1068 38.6621 43.0808 39.0409 43.0565C41.859 42.8754 44.4738 42.5116 47.0904 42.1473C47.6914 42.0636 48.2935 41.9798 48.8973 41.8983Z" fill="white"/>
</svg>
